# xmcd
#
# Track frame offsets: 
#        150
#        19438
#        46324
#        69770
#
# Disc length: 1307 seconds
#
# Revision: 1
# Processed by: cddbd v1.5.1PL0 Copyright (c) Steve Scherf et al.
# Submitted via: ExactAudioCopy v0.90b3
#
DISCID=2c051904
DTITLE=Bruce Springsteen - waitin' on a sunny day
DYEAR=2003
DGENRE=Rock
TTITLE0=Waitin' On A Sunny Day
TTITLE1=Born To Run [live from NYC]
TTITLE2=Darkness On The Edge Of Town [live from NYC]
TTITLE3=Thunder Road [live from NYC]
EXTD=YEAR: 2003
EXTT0=
EXTT1=
EXTT2=
EXTT3=
PLAYORDER=
